<?xml version="1.0" encoding="UTF-8"?>
<svg id="Capa_1" data-name="Capa 1" xmlns="http://www.w3.org/2000/svg" xmlns:xlink="http://www.w3.org/1999/xlink" viewBox="0 0 800 700">
  <defs>
    <style>
      .cls-1 {
        clip-path: url(#clippath);
      }

      .cls-2, .cls-3 {
        fill: #fff;
      }

      .cls-3 {
        stroke-width: 0px;
      }
    </style>
    <clipPath id="clippath">
      <path class="cls-3" d="m371.67,270.28l-33.66-8.6,2.96,10.54-8.25,3.75c-10.07,4.57-18.7,12.32-24.96,22.4-.27.43-.53.86-.78,1.29-9.67,16.37-9.79,31.93-9.9,46.99-.1,13.15-.19,25.57-6.66,38.41-7.84,15.55-22.06,26.4-35.37,26.98-5.95.27-15.6-1.43-27.83-10.95-4.34-3.38-8.37-7.62-11.37-11,3.46-7.07,5.32-13.34,6.47-17.23,2.1-7.07,4.71-15.87,2.66-26.59-1.05-5.47-3.29-11.37-5.99-15.75-5.25-8.53-11.21-10.31-15.49-10.31-13.06.18-19.83,17.47-21.02,28.32-1.46,13.28,4.04,23.61,7.69,30.46,2.66,4.99,5.3,8.33,8.98,12.71-2.98,4.47-6.42,8.34-10.26,11.54-13.54,11.29-27.57,10.7-34.73,9.35-19.15-3.62-30.65-20.42-35.56-27.6-20.71-30.28-19.11-68.58-17.45-83.64l.36-3.32-13.64-1.49-.37,3.32c-1.82,16.58-3.53,58.82,19.77,92.89,5.36,7.84,19.6,28.66,44.34,33.33,3.36.63,6.82.96,10.28.96,9.08,0,22.66-2.3,35.79-13.25,3.96-3.3,7.57-7.14,10.77-11.44,3.64,3.87,7.05,7.02,10.35,9.59,15.52,12.08,28.62,14.19,36.86,13.83,18.12-.79,37.01-14.66,47.02-34.52,7.91-15.69,8.02-30.32,8.13-44.49.1-13.84.2-26.91,8-40.11.21-.35.41-.69.62-1.03,4.82-7.77,11.38-13.69,18.98-17.14l6.33-2.87,2.68,9.54,24.27-24.85Zm-169.4,102.25c-3.19-5.99-7.16-13.43-6.16-22.5.93-8.44,5.71-16.07,7.53-16.1h.05c1.43,0,6.09,5.95,7.8,14.93,1.43,7.44-.4,13.59-2.34,20.1-.67,2.25-1.65,5.58-3.15,9.39-1.46-1.93-2.58-3.66-3.73-5.82Z"/>
    </clipPath>
  </defs>
  <g>
    <path class="cls-3" d="m209.47,463.01c-.32.28-.78.55-1.36.82s-1.22.51-1.92.73c-.7.22-1.42.39-2.15.52-.73.13-1.43.19-2.1.19-1.87,0-3.57-.29-5.07-.87s-2.79-1.39-3.86-2.42c-1.07-1.03-1.88-2.25-2.44-3.65-.56-1.4-.84-2.91-.84-4.52,0-1.98.32-3.74.95-5.27.63-1.53,1.5-2.83,2.6-3.89,1.1-1.07,2.38-1.87,3.83-2.42,1.45-.55,2.98-.82,4.57-.82,1.38,0,2.65.16,3.81.47,1.16.31,2.19.73,3.07,1.24l-1.03,2.88c-.45-.24-1-.47-1.63-.69-.64-.23-1.29-.41-1.96-.55-.67-.14-1.28-.21-1.84-.21-1.4,0-2.65.21-3.76.63-1.11.42-2.07,1.02-2.88,1.81-.81.79-1.43,1.73-1.86,2.84-.43,1.11-.65,2.35-.65,3.73,0,1.25.21,2.41.65,3.47.43,1.07,1.05,1.98,1.86,2.75.81.76,1.76,1.35,2.86,1.76,1.1.41,2.33.61,3.68.61.78,0,1.55-.08,2.33-.23.78-.15,1.43-.39,1.97-.71v-4.59h-4.62v-3.04h7.79v9.44Z"/>
    <path class="cls-3" d="m220.58,465.53c-1.25,0-2.27-.37-3.05-1.11-.79-.74-1.2-1.71-1.24-2.89v-9.89h3.04v8.82c.04.71.26,1.3.65,1.76.39.46.99.71,1.81.73.73,0,1.39-.22,1.99-.66.59-.44,1.07-1.04,1.44-1.81.37-.76.55-1.63.55-2.6v-6.24h3.01v13.38h-2.75l-.26-3.3.19.61c-.28.6-.68,1.15-1.2,1.63-.52.48-1.14.87-1.86,1.15-.72.28-1.49.42-2.31.42Z"/>
    <path class="cls-3" d="m241.13,465.34c-1.25,0-2.39-.27-3.41-.81-1.02-.54-1.84-1.33-2.44-2.38-.6-1.04-.9-2.32-.9-3.83s.31-2.8.94-3.88c.62-1.08,1.46-1.91,2.52-2.49s2.21-.87,3.46-.87,2.31.29,3.18.86c.87.57,1.52,1.24,1.95,2.02l-.19.48.29-2.81h2.78v13.38h-3.01v-3.49l.36.78c-.11.22-.31.49-.61.82-.3.33-.68.67-1.15,1.02-.46.34-1.01.63-1.63.86-.62.23-1.34.34-2.13.34Zm.81-2.49c.75,0,1.43-.14,2.04-.42.6-.28,1.1-.68,1.5-1.2.4-.52.67-1.12.82-1.81v-2.62c-.17-.65-.47-1.21-.9-1.7-.43-.48-.95-.86-1.55-1.13-.6-.27-1.26-.4-1.97-.4-.82,0-1.56.19-2.23.58-.67.39-1.2.93-1.6,1.62-.4.69-.6,1.5-.6,2.42,0,.86.2,1.65.61,2.36.41.71.96,1.27,1.65,1.68.69.41,1.43.61,2.23.61Z"/>
    <path class="cls-3" d="m258.84,451.63l.29,3.88-.13-.55c.34-.8.84-1.49,1.49-2.07.65-.58,1.34-1.02,2.07-1.32.73-.3,1.36-.46,1.87-.48l-.13,3.04c-1.03-.09-1.93.1-2.7.57-.77.46-1.37,1.07-1.81,1.81-.44.74-.66,1.55-.66,2.41v6.11h-3v-13.38h2.71Z"/>
    <path class="cls-3" d="m275.35,465.34c-1.25,0-2.37-.3-3.36-.89s-1.78-1.43-2.37-2.52c-.59-1.09-.89-2.34-.89-3.76s.31-2.76.94-3.81c.62-1.06,1.46-1.86,2.52-2.42,1.06-.56,2.24-.84,3.55-.84,1.06,0,2.06.23,3.02.68.96.45,1.71,1.08,2.25,1.87l-.16,1.07v-14.7h3.01v25.01h-3.01v-3.33l.36.84c-.65.82-1.47,1.49-2.47,2.02-1,.53-2.13.79-3.38.79Zm.94-2.55c.8,0,1.5-.15,2.12-.45.61-.3,1.13-.71,1.55-1.21.42-.51.72-1.1.89-1.79v-2.55c-.17-.65-.48-1.22-.92-1.71-.44-.5-.97-.88-1.58-1.15-.61-.27-1.3-.4-2.05-.4-.8,0-1.54.19-2.23.58-.69.39-1.24.93-1.65,1.62-.41.69-.61,1.49-.61,2.39s.2,1.68.61,2.38c.41.7.96,1.26,1.65,1.68.69.42,1.43.63,2.23.63Z"/>
    <path class="cls-3" d="m290.47,446.79c0-.47.19-.87.57-1.2.38-.32.79-.48,1.24-.48s.86.16,1.23.48c.37.32.55.72.55,1.2s-.18.9-.55,1.21c-.37.31-.78.47-1.23.47s-.87-.16-1.24-.47c-.38-.31-.57-.72-.57-1.21Zm.19,4.85h3.04v13.38h-3.04v-13.38Z"/>
    <path class="cls-3" d="m306.11,465.34c-1.25,0-2.39-.27-3.41-.81-1.02-.54-1.84-1.33-2.44-2.38-.6-1.04-.9-2.32-.9-3.83s.31-2.8.94-3.88c.62-1.08,1.46-1.91,2.52-2.49s2.21-.87,3.46-.87,2.31.29,3.18.86c.87.57,1.52,1.24,1.95,2.02l-.19.48.29-2.81h2.78v13.38h-3.01v-3.49l.36.78c-.11.22-.31.49-.61.82-.3.33-.68.67-1.15,1.02-.46.34-1.01.63-1.63.86-.62.23-1.34.34-2.13.34Zm.81-2.49c.75,0,1.43-.14,2.04-.42.6-.28,1.1-.68,1.5-1.2.4-.52.67-1.12.82-1.81v-2.62c-.17-.65-.47-1.21-.9-1.7-.43-.48-.95-.86-1.55-1.13-.6-.27-1.26-.4-1.97-.4-.82,0-1.56.19-2.23.58-.67.39-1.2.93-1.6,1.62-.4.69-.6,1.5-.6,2.42,0,.86.2,1.65.61,2.36.41.71.96,1.27,1.65,1.68.69.41,1.43.61,2.23.61Zm4.59-18.03l-4.1,4.33h-1.94l2.68-4.33h3.36Z"/>
    <path class="cls-3" d="m323.85,451.63l.23,3.26-.1-.52c.41-.99,1.1-1.78,2.07-2.38.97-.59,2.1-.89,3.39-.89s2.28.37,3.09,1.11,1.22,1.71,1.24,2.89v9.89h-3.04v-8.85c-.02-.71-.23-1.3-.63-1.76-.4-.46-1.02-.69-1.86-.69-.75,0-1.45.22-2.08.65-.64.43-1.13,1.02-1.49,1.78-.36.75-.53,1.63-.53,2.62v6.27h-3.04v-13.38h2.75Z"/>
    <path class="cls-3" d="m357.87,465.34c-1.25,0-2.37-.3-3.36-.89s-1.78-1.43-2.37-2.52c-.59-1.09-.89-2.34-.89-3.76s.31-2.76.94-3.81c.62-1.06,1.46-1.86,2.52-2.42,1.06-.56,2.24-.84,3.55-.84,1.06,0,2.06.23,3.02.68.96.45,1.71,1.08,2.25,1.87l-.16,1.07v-14.7h3.01v25.01h-3.01v-3.33l.36.84c-.65.82-1.47,1.49-2.47,2.02-1,.53-2.13.79-3.38.79Zm.94-2.55c.8,0,1.5-.15,2.12-.45.61-.3,1.13-.71,1.55-1.21.42-.51.72-1.1.89-1.79v-2.55c-.17-.65-.48-1.22-.92-1.71-.44-.5-.97-.88-1.58-1.15-.61-.27-1.3-.4-2.05-.4-.8,0-1.54.19-2.23.58-.69.39-1.24.93-1.65,1.62-.41.69-.61,1.49-.61,2.39s.2,1.68.61,2.38c.41.7.96,1.26,1.65,1.68.69.42,1.43.63,2.23.63Z"/>
    <path class="cls-3" d="m379.42,465.34c-1.53,0-2.84-.31-3.94-.92-1.1-.61-1.95-1.45-2.55-2.52-.6-1.07-.9-2.29-.9-3.67s.34-2.51,1.02-3.59c.68-1.08,1.58-1.94,2.7-2.58,1.12-.65,2.37-.97,3.75-.97,1.77,0,3.23.52,4.39,1.55,1.16,1.03,1.96,2.46,2.39,4.27l-11.05,3.88-.71-1.78,9.02-3.33-.61.45c-.26-.71-.69-1.32-1.29-1.84-.6-.52-1.39-.78-2.36-.78-.82,0-1.55.19-2.18.58-.64.39-1.14.92-1.5,1.6-.37.68-.55,1.47-.55,2.38s.19,1.71.57,2.42c.38.71.9,1.27,1.58,1.66.68.4,1.45.6,2.31.6.58,0,1.15-.11,1.7-.32s1.07-.5,1.57-.84l1.36,2.23c-.67.45-1.42.82-2.25,1.1-.83.28-1.64.42-2.44.42Z"/>
    <path class="cls-3" d="m404.72,445.75h3.07v5.95h3.65v2.36h-3.65v10.95h-3.07v-10.95h-2.42v-2.36h2.42v-5.95Z"/>
    <path class="cls-3" d="m420.98,465.53c-1.25,0-2.27-.37-3.05-1.11-.79-.74-1.2-1.71-1.24-2.89v-9.89h3.04v8.82c.04.71.26,1.3.65,1.76.39.46.99.71,1.81.73.73,0,1.39-.22,1.99-.66.59-.44,1.07-1.04,1.44-1.81.37-.76.55-1.63.55-2.6v-6.24h3.01v13.38h-2.75l-.26-3.3.19.61c-.28.6-.68,1.15-1.2,1.63-.52.48-1.14.87-1.86,1.15-.72.28-1.49.42-2.31.42Z"/>
    <path class="cls-3" d="m439.72,465.27c-.95,0-1.87-.17-2.76-.5-.89-.33-1.63-.83-2.21-1.5l1.26-1.75c.58.54,1.16.94,1.75,1.21.58.27,1.16.4,1.74.4.43,0,.83-.05,1.2-.16.37-.11.66-.29.89-.55.23-.26.34-.59.34-1,0-.5-.16-.88-.47-1.15-.31-.27-.71-.49-1.18-.66-.47-.17-.99-.33-1.55-.48-1.1-.37-1.94-.87-2.52-1.52-.58-.65-.87-1.43-.87-2.36,0-.71.18-1.37.53-1.99.36-.61.89-1.12,1.6-1.52.71-.4,1.57-.6,2.58-.6.93,0,1.76.11,2.49.34.73.23,1.42.61,2.07,1.15l-1.2,1.87c-.39-.41-.85-.72-1.37-.92-.53-.2-1.01-.31-1.44-.31-.39,0-.75.06-1.08.18-.33.12-.6.29-.81.52-.21.23-.31.51-.31.86-.02.45.12.81.44,1.08.31.27.71.49,1.18.66.47.17.96.34,1.45.52.65.19,1.23.45,1.74.78.52.32.93.72,1.24,1.2.31.47.47,1.07.47,1.78,0,.8-.19,1.54-.57,2.21-.38.68-.95,1.22-1.71,1.62s-1.74.6-2.92.6Z"/>
    <path class="cls-3" d="m470.45,465.34c-1.01,0-1.99-.24-2.92-.71s-1.65-1.11-2.15-1.91l.16-.94v9.66h-3v-20h2.62l.42,3.43-.32-.97c.65-.82,1.46-1.49,2.46-2.02.99-.53,2.1-.79,3.33-.79s2.38.3,3.38.89c1,.59,1.79,1.43,2.38,2.52.58,1.09.87,2.35.87,3.8s-.31,2.67-.94,3.73c-.62,1.07-1.48,1.89-2.57,2.46-1.09.57-2.32.86-3.7.86Zm-.58-2.39c.86,0,1.65-.2,2.36-.6.71-.4,1.29-.95,1.73-1.65.44-.7.66-1.49.66-2.38s-.21-1.71-.61-2.41c-.41-.7-.95-1.25-1.63-1.65-.68-.4-1.44-.6-2.28-.6-.78,0-1.48.15-2.1.44-.62.29-1.14.69-1.55,1.21-.41.52-.7,1.13-.87,1.84v2.26c.11.65.37,1.24.78,1.78.41.54.92.96,1.53,1.28.61.31,1.28.47,1.99.47Z"/>
    <path class="cls-3" d="m486.02,451.63l.29,3.88-.13-.55c.34-.8.84-1.49,1.49-2.07.65-.58,1.34-1.02,2.07-1.32.73-.3,1.36-.46,1.87-.48l-.13,3.04c-1.03-.09-1.93.1-2.7.57-.77.46-1.37,1.07-1.81,1.81-.44.74-.66,1.55-.66,2.41v6.11h-3v-13.38h2.71Z"/>
    <path class="cls-3" d="m495.91,458.19c0-1.34.32-2.54.95-3.62.64-1.08,1.52-1.93,2.65-2.55s2.42-.94,3.86-.94,2.71.31,3.81.94,1.96,1.48,2.57,2.55c.61,1.08.92,2.28.92,3.62s-.31,2.54-.92,3.62-1.47,1.93-2.57,2.57c-1.1.63-2.38.95-3.85.95s-2.72-.3-3.83-.89-1.99-1.42-2.63-2.49c-.65-1.07-.97-2.32-.97-3.76Zm3.04.03c0,.86.19,1.64.58,2.34.39.7.9,1.25,1.55,1.66.65.41,1.38.61,2.2.61s1.58-.2,2.23-.61c.65-.41,1.16-.96,1.53-1.66.38-.7.57-1.48.57-2.34s-.19-1.64-.57-2.34c-.38-.7-.89-1.26-1.53-1.68-.65-.42-1.39-.63-2.23-.63s-1.56.22-2.21.65c-.66.43-1.17,1-1.55,1.7-.38.7-.57,1.47-.57,2.31Z"/>
    <path class="cls-3" d="m527.19,463.75c-.6.5-1.32.88-2.17,1.16-.84.28-1.68.42-2.52.42-1.44,0-2.72-.29-3.83-.87-1.11-.58-1.98-1.4-2.6-2.46-.62-1.06-.94-2.29-.94-3.72s.33-2.65,1-3.7c.67-1.04,1.53-1.85,2.6-2.42,1.07-.57,2.22-.86,3.47-.86,1.06,0,2.01.15,2.86.44.85.29,1.59.71,2.21,1.24l-1.52,1.94c-.37-.28-.83-.54-1.41-.79-.57-.25-1.2-.37-1.89-.37-.8,0-1.52.2-2.18.6-.66.4-1.17.94-1.55,1.62s-.57,1.45-.57,2.31.19,1.6.58,2.29c.39.69.93,1.24,1.62,1.65s1.49.61,2.39.61c.56,0,1.08-.09,1.57-.26.48-.17.92-.41,1.31-.71l1.55,1.87Z"/>
    <path class="cls-3" d="m538.88,465.34c-1.53,0-2.84-.31-3.94-.92-1.1-.61-1.95-1.45-2.55-2.52-.6-1.07-.9-2.29-.9-3.67s.34-2.51,1.02-3.59c.68-1.08,1.58-1.94,2.7-2.58,1.12-.65,2.37-.97,3.75-.97,1.77,0,3.23.52,4.39,1.55,1.16,1.03,1.96,2.46,2.39,4.27l-11.05,3.88-.71-1.78,9.02-3.33-.61.45c-.26-.71-.69-1.32-1.29-1.84-.6-.52-1.39-.78-2.36-.78-.82,0-1.55.19-2.18.58-.64.39-1.14.92-1.5,1.6-.37.68-.55,1.47-.55,2.38s.19,1.71.57,2.42c.38.71.9,1.27,1.58,1.66.68.4,1.45.6,2.31.6.58,0,1.15-.11,1.7-.32s1.07-.5,1.57-.84l1.36,2.23c-.67.45-1.42.82-2.25,1.1-.83.28-1.64.42-2.44.42Z"/>
    <path class="cls-3" d="m554.84,465.27c-.95,0-1.87-.17-2.76-.5-.89-.33-1.63-.83-2.21-1.5l1.26-1.75c.58.54,1.16.94,1.75,1.21.58.27,1.16.4,1.74.4.43,0,.83-.05,1.2-.16.37-.11.66-.29.89-.55.23-.26.34-.59.34-1,0-.5-.16-.88-.47-1.15-.31-.27-.71-.49-1.18-.66-.47-.17-.99-.33-1.55-.48-1.1-.37-1.94-.87-2.52-1.52-.58-.65-.87-1.43-.87-2.36,0-.71.18-1.37.53-1.99.36-.61.89-1.12,1.6-1.52.71-.4,1.57-.6,2.58-.6.93,0,1.76.11,2.49.34.73.23,1.42.61,2.07,1.15l-1.2,1.87c-.39-.41-.85-.72-1.37-.92-.53-.2-1.01-.31-1.44-.31-.39,0-.75.06-1.08.18-.33.12-.6.29-.81.52-.21.23-.31.51-.31.86-.02.45.12.81.44,1.08.31.27.71.49,1.18.66.47.17.96.34,1.45.52.65.19,1.23.45,1.74.78.52.32.93.72,1.24,1.2.31.47.47,1.07.47,1.78,0,.8-.19,1.54-.57,2.21-.38.68-.95,1.22-1.71,1.62s-1.74.6-2.92.6Z"/>
    <path class="cls-3" d="m564.67,458.19c0-1.34.32-2.54.95-3.62.64-1.08,1.52-1.93,2.65-2.55s2.42-.94,3.86-.94,2.71.31,3.81.94,1.96,1.48,2.57,2.55c.61,1.08.92,2.28.92,3.62s-.31,2.54-.92,3.62-1.47,1.93-2.57,2.57c-1.1.63-2.38.95-3.85.95s-2.72-.3-3.83-.89-1.99-1.42-2.63-2.49c-.65-1.07-.97-2.32-.97-3.76Zm3.04.03c0,.86.19,1.64.58,2.34.39.7.9,1.25,1.55,1.66.65.41,1.38.61,2.2.61s1.58-.2,2.23-.61c.65-.41,1.16-.96,1.53-1.66.38-.7.57-1.48.57-2.34s-.19-1.64-.57-2.34c-.38-.7-.89-1.26-1.53-1.68-.65-.42-1.39-.63-2.23-.63s-1.56.22-2.21.65c-.66.43-1.17,1-1.55,1.7-.38.7-.57,1.47-.57,2.31Z"/>
    <path class="cls-3" d="m588.84,465.27c-.95,0-1.87-.17-2.76-.5-.89-.33-1.63-.83-2.21-1.5l1.26-1.75c.58.54,1.16.94,1.75,1.21.58.27,1.16.4,1.74.4.43,0,.83-.05,1.2-.16.37-.11.66-.29.89-.55.23-.26.34-.59.34-1,0-.5-.16-.88-.47-1.15-.31-.27-.71-.49-1.18-.66-.47-.17-.99-.33-1.55-.48-1.1-.37-1.94-.87-2.52-1.52-.58-.65-.87-1.43-.87-2.36,0-.71.18-1.37.53-1.99.36-.61.89-1.12,1.6-1.52.71-.4,1.57-.6,2.58-.6.93,0,1.76.11,2.49.34.73.23,1.42.61,2.07,1.15l-1.2,1.87c-.39-.41-.85-.72-1.37-.92-.53-.2-1.01-.31-1.44-.31-.39,0-.75.06-1.08.18-.33.12-.6.29-.81.52-.21.23-.31.51-.31.86-.02.45.12.81.44,1.08.31.27.71.49,1.18.66.47.17.96.34,1.45.52.65.19,1.23.45,1.74.78.52.32.93.72,1.24,1.2.31.47.47,1.07.47,1.78,0,.8-.19,1.54-.57,2.21-.38.68-.95,1.22-1.71,1.62s-1.74.6-2.92.6Z"/>
  </g>
  <g>
    <path class="cls-3" d="m371.97,427.01c-6.15,0-11.55-1.07-16.19-3.19-4.64-2.12-8.25-5.14-10.82-9.06-2.58-3.91-3.86-8.5-3.86-13.76,0-4.92,1.09-9.34,3.27-13.26,2.18-3.92,5.54-7.22,10.07-9.9,4.53-2.68,10.32-4.59,17.37-5.7l31.55-5.2v15.1l-27.86,4.7c-5.03.9-8.73,2.52-11.08,4.87-2.35,2.35-3.52,5.26-3.52,8.73s1.31,6.29,3.94,8.47c2.63,2.18,6.01,3.27,10.15,3.27,5.03,0,9.48-1.12,13.34-3.36,3.86-2.24,6.88-5.23,9.06-8.98,2.18-3.75,3.27-7.91,3.27-12.5v-23.33c0-4.36-1.68-7.97-5.03-10.82s-7.78-4.28-13.26-4.28c-4.92,0-9.26,1.29-13.01,3.86-3.75,2.58-6.52,5.99-8.31,10.24l-15.94-7.89c1.79-4.48,4.56-8.45,8.31-11.92,3.75-3.47,8.16-6.15,13.26-8.05,5.09-1.9,10.54-2.85,16.36-2.85,7.16,0,13.51,1.34,19.05,4.03,5.54,2.68,9.84,6.41,12.92,11.16,3.08,4.75,4.62,10.27,4.62,16.53v61.09h-18.12v-16.28l3.69.34c-2.12,3.69-4.81,6.88-8.05,9.57-3.25,2.68-6.99,4.75-11.24,6.21-4.25,1.46-8.89,2.18-13.93,2.18Z"/>
    <path class="cls-3" d="m475.34,427.01v-90.79h18.13v18.46l-1.68-2.68c2.01-6.04,5.26-10.38,9.73-13.01,4.47-2.63,9.84-3.95,16.11-3.95h5.54v17.29h-7.89c-6.27,0-11.33,1.96-15.19,5.87-3.86,3.92-5.79,9.4-5.79,16.45v52.36h-18.97Z"/>
    <path class="cls-3" d="m611.45,427.01c-8.62,0-16.36-2.1-23.24-6.29-6.88-4.2-12.31-9.87-16.28-17.03-3.97-7.16-5.96-15.21-5.96-24.17s1.98-17.01,5.96-24.16c3.97-7.16,9.4-12.81,16.28-16.95,6.88-4.14,14.62-6.21,23.24-6.21,7.16,0,13.57,1.46,19.22,4.37,5.65,2.91,10.1,6.94,13.34,12.08l-3.02,4.36v-55.05h18.96v127.04h-18.12v-18.46l2.18,3.52c-3.13,5.48-7.58,9.68-13.34,12.59-5.76,2.91-12.17,4.37-19.22,4.37Zm2.01-17.62c5.26,0,9.96-1.29,14.09-3.86,4.14-2.57,7.41-6.12,9.82-10.66,2.4-4.53,3.61-9.65,3.61-15.36s-1.21-10.66-3.61-15.19c-2.41-4.53-5.68-8.08-9.82-10.66-4.14-2.57-8.84-3.86-14.09-3.86s-10.02,1.32-14.26,3.95c-4.25,2.63-7.55,6.15-9.9,10.57-2.35,4.42-3.52,9.48-3.52,15.19s1.18,10.82,3.52,15.36c2.35,4.53,5.62,8.08,9.82,10.66,4.2,2.58,8.98,3.86,14.35,3.86Z"/>
    <circle class="cls-3" cx="689.05" cy="417.53" r="9.48"/>
    <g>
      <path class="cls-2" d="m371.67,270.28l-33.66-8.6,2.96,10.54-8.25,3.75c-10.07,4.57-18.7,12.32-24.96,22.4-.27.43-.53.86-.78,1.29-9.67,16.37-9.79,31.93-9.9,46.99-.1,13.15-.19,25.57-6.66,38.41-7.84,15.55-22.06,26.4-35.37,26.98-5.95.27-15.6-1.43-27.83-10.95-4.34-3.38-8.37-7.62-11.37-11,3.46-7.07,5.32-13.34,6.47-17.23,2.1-7.07,4.71-15.87,2.66-26.59-1.05-5.47-3.29-11.37-5.99-15.75-5.25-8.53-11.21-10.31-15.49-10.31-13.06.18-19.83,17.47-21.02,28.32-1.46,13.28,4.04,23.61,7.69,30.46,2.66,4.99,5.3,8.33,8.98,12.71-2.98,4.47-6.42,8.34-10.26,11.54-13.54,11.29-27.57,10.7-34.73,9.35-19.15-3.62-30.65-20.42-35.56-27.6-20.71-30.28-19.11-68.58-17.45-83.64l.36-3.32-13.64-1.49-.37,3.32c-1.82,16.58-3.53,58.82,19.77,92.89,5.36,7.84,19.6,28.66,44.34,33.33,3.36.63,6.82.96,10.28.96,9.08,0,22.66-2.3,35.79-13.25,3.96-3.3,7.57-7.14,10.77-11.44,3.64,3.87,7.05,7.02,10.35,9.59,15.52,12.08,28.62,14.19,36.86,13.83,18.12-.79,37.01-14.66,47.02-34.52,7.91-15.69,8.02-30.32,8.13-44.49.1-13.84.2-26.91,8-40.11.21-.35.41-.69.62-1.03,4.82-7.77,11.38-13.69,18.98-17.14l6.33-2.87,2.68,9.54,24.27-24.85Zm-169.4,102.25c-3.19-5.99-7.16-13.43-6.16-22.5.93-8.44,5.71-16.07,7.53-16.1h.05c1.43,0,6.09,5.95,7.8,14.93,1.43,7.44-.4,13.59-2.34,20.1-.67,2.25-1.65,5.58-3.15,9.39-1.46-1.93-2.58-3.66-3.73-5.82Z"/>
      <g class="cls-1">
        <rect class="cls-3" x="195.12" y="333.92" width="1.08" height="44.43"/>
        <rect class="cls-3" x="196.2" y="333.92" width="2.44" height="44.43"/>
        <rect class="cls-3" x="198.64" y="333.92" width="2.44" height="44.43"/>
        <rect class="cls-3" x="201.07" y="333.92" width="2.44" height="44.43"/>
        <rect class="cls-3" x="203.51" y="333.92" width="2.44" height="44.43"/>
        <rect class="cls-3" x="205.95" y="333.92" width="2.44" height="44.43"/>
        <rect class="cls-3" x="208.39" y="333.92" width="2.44" height="44.43"/>
        <rect class="cls-3" x="210.82" y="333.92" width="2.1" height="44.43"/>
        <rect class="cls-3" x="83.96" y="261.68" width="2.57" height="165.33"/>
        <rect class="cls-3" x="86.53" y="261.68" width="2.44" height="165.33"/>
        <rect class="cls-3" x="88.97" y="261.68" width="2.44" height="165.33"/>
        <rect class="cls-3" x="91.4" y="261.68" width="2.44" height="165.33"/>
        <rect class="cls-3" x="93.84" y="261.68" width="2.44" height="165.33"/>
        <rect class="cls-3" x="96.28" y="261.68" width="2.44" height="165.33"/>
        <rect class="cls-3" x="98.71" y="261.68" width="2.44" height="165.33"/>
        <rect class="cls-3" x="101.15" y="261.68" width="2.44" height="165.33"/>
        <rect class="cls-3" x="103.59" y="261.68" width="2.44" height="165.33"/>
        <rect class="cls-3" x="106.03" y="261.68" width="2.44" height="165.33"/>
        <rect class="cls-3" x="108.46" y="261.68" width="2.44" height="165.33"/>
        <rect class="cls-3" x="110.9" y="261.68" width="2.44" height="165.33"/>
        <rect class="cls-3" x="113.34" y="261.68" width="2.44" height="165.33"/>
        <rect class="cls-3" x="115.77" y="261.68" width="2.44" height="165.33"/>
        <rect class="cls-3" x="118.21" y="261.68" width="2.44" height="165.33"/>
        <rect class="cls-3" x="120.65" y="261.68" width="2.44" height="165.33"/>
        <rect class="cls-3" x="123.09" y="261.68" width="2.44" height="165.33"/>
        <rect class="cls-3" x="125.52" y="261.68" width="2.44" height="165.33"/>
        <rect class="cls-3" x="127.96" y="261.68" width="2.44" height="165.33"/>
        <rect class="cls-3" x="130.4" y="261.68" width="2.44" height="165.33"/>
        <rect class="cls-3" x="132.83" y="261.68" width="2.44" height="165.33"/>
        <rect class="cls-3" x="135.27" y="261.68" width="2.44" height="165.33"/>
        <rect class="cls-3" x="137.71" y="261.68" width="2.44" height="165.33"/>
        <rect class="cls-3" x="140.15" y="261.68" width="2.44" height="165.33"/>
        <rect class="cls-3" x="142.58" y="261.68" width="2.44" height="165.33"/>
        <rect class="cls-3" x="145.02" y="261.68" width="2.44" height="165.33"/>
        <rect class="cls-3" x="147.46" y="261.68" width="2.44" height="165.33"/>
        <rect class="cls-3" x="149.89" y="261.68" width="2.44" height="165.33"/>
        <rect class="cls-3" x="152.33" y="261.68" width="2.44" height="165.33"/>
        <rect class="cls-3" x="154.77" y="261.68" width="2.44" height="165.33"/>
        <rect class="cls-3" x="157.21" y="261.68" width="2.44" height="165.33"/>
        <rect class="cls-3" x="159.64" y="261.68" width="2.44" height="165.33"/>
        <rect class="cls-3" x="162.08" y="261.68" width="2.44" height="165.33"/>
        <rect class="cls-3" x="164.52" y="261.68" width="2.44" height="165.33"/>
        <rect class="cls-3" x="166.95" y="261.68" width="2.44" height="165.33"/>
        <rect class="cls-3" x="169.39" y="261.68" width="2.44" height="165.33"/>
        <rect class="cls-3" x="171.83" y="261.68" width="2.44" height="165.33"/>
        <rect class="cls-3" x="174.27" y="261.68" width="2.44" height="165.33"/>
        <rect class="cls-3" x="176.7" y="261.68" width="2.44" height="165.33"/>
        <rect class="cls-3" x="179.14" y="261.68" width="2.44" height="165.33"/>
        <rect class="cls-3" x="181.58" y="261.68" width="2.44" height="165.33"/>
        <rect class="cls-3" x="184.01" y="261.68" width="2.44" height="165.33"/>
        <rect class="cls-3" x="186.45" y="261.68" width="2.44" height="165.33"/>
        <rect class="cls-3" x="188.89" y="261.68" width="2.44" height="165.33"/>
        <rect class="cls-3" x="191.33" y="261.68" width="2.44" height="165.33"/>
        <rect class="cls-3" x="193.76" y="261.68" width="2.44" height="165.33"/>
        <rect class="cls-3" x="196.2" y="261.68" width="2.44" height="165.33"/>
        <rect class="cls-3" x="198.64" y="261.68" width="2.44" height="165.33"/>
        <rect class="cls-3" x="201.07" y="261.68" width="2.44" height="165.33"/>
        <rect class="cls-3" x="203.51" y="261.68" width="2.44" height="165.33"/>
        <rect class="cls-3" x="205.95" y="261.68" width="2.44" height="165.33"/>
        <rect class="cls-3" x="208.39" y="261.68" width="2.44" height="165.33"/>
        <rect class="cls-3" x="210.82" y="261.68" width="2.44" height="165.33"/>
        <rect class="cls-3" x="213.26" y="261.68" width="2.44" height="165.33"/>
        <rect class="cls-3" x="215.7" y="261.68" width="2.44" height="165.33"/>
        <rect class="cls-3" x="218.13" y="261.68" width="2.44" height="165.33"/>
        <rect class="cls-3" x="220.57" y="261.68" width="2.44" height="165.33"/>
        <rect class="cls-3" x="223.01" y="261.68" width="2.44" height="165.33"/>
        <rect class="cls-3" x="225.45" y="261.68" width="2.44" height="165.33"/>
        <rect class="cls-3" x="227.88" y="261.68" width="2.44" height="165.33"/>
        <rect class="cls-3" x="230.32" y="261.68" width="2.44" height="165.33"/>
        <rect class="cls-3" x="232.76" y="261.68" width="2.44" height="165.33"/>
        <rect class="cls-3" x="235.19" y="261.68" width="2.44" height="165.33"/>
        <rect class="cls-3" x="237.63" y="261.68" width="2.44" height="165.33"/>
        <rect class="cls-3" x="240.07" y="261.68" width="2.44" height="165.33"/>
        <rect class="cls-3" x="242.51" y="261.68" width="2.44" height="165.33"/>
        <rect class="cls-3" x="244.94" y="261.68" width="2.44" height="165.33"/>
        <rect class="cls-3" x="247.38" y="261.68" width="2.44" height="165.33"/>
        <rect class="cls-3" x="249.82" y="261.68" width="2.44" height="165.33"/>
        <rect class="cls-3" x="252.25" y="261.68" width="2.44" height="165.33"/>
        <rect class="cls-3" x="254.69" y="261.68" width="2.44" height="165.33"/>
        <rect class="cls-3" x="257.13" y="261.68" width="2.44" height="165.33"/>
        <rect class="cls-3" x="259.57" y="261.68" width="2.44" height="165.33"/>
        <rect class="cls-3" x="262" y="261.68" width="2.44" height="165.33"/>
        <rect class="cls-3" x="264.44" y="261.68" width="2.44" height="165.33"/>
        <rect class="cls-3" x="266.88" y="261.68" width="2.44" height="165.33"/>
        <rect class="cls-3" x="269.31" y="261.68" width="2.44" height="165.33"/>
        <rect class="cls-3" x="271.75" y="261.68" width="2.44" height="165.33"/>
        <rect class="cls-3" x="274.19" y="261.68" width="2.44" height="165.33"/>
        <rect class="cls-3" x="276.63" y="261.68" width="2.44" height="165.33"/>
        <rect class="cls-3" x="279.06" y="261.68" width="2.44" height="165.33"/>
        <rect class="cls-3" x="281.5" y="261.68" width="2.44" height="165.33"/>
        <rect class="cls-3" x="283.94" y="261.68" width="2.44" height="165.33"/>
        <rect class="cls-3" x="286.37" y="261.68" width="2.44" height="165.33"/>
        <rect class="cls-3" x="288.81" y="261.68" width="2.44" height="165.33"/>
        <rect class="cls-3" x="291.25" y="261.68" width="2.44" height="165.33"/>
        <rect class="cls-3" x="293.69" y="261.68" width="2.44" height="165.33"/>
        <rect class="cls-3" x="296.12" y="261.68" width="2.44" height="165.33"/>
        <rect class="cls-3" x="298.56" y="261.68" width="2.44" height="165.33"/>
        <rect class="cls-3" x="301" y="261.68" width="2.44" height="165.33"/>
        <rect class="cls-3" x="303.43" y="261.68" width="2.44" height="165.33"/>
        <rect class="cls-3" x="305.87" y="261.68" width="2.44" height="165.33"/>
        <rect class="cls-3" x="308.31" y="261.68" width="2.44" height="165.33"/>
        <rect class="cls-3" x="310.75" y="261.68" width="2.44" height="165.33"/>
        <rect class="cls-3" x="313.18" y="261.68" width="2.44" height="165.33"/>
        <rect class="cls-3" x="315.62" y="261.68" width="2.44" height="165.33"/>
        <rect class="cls-3" x="318.06" y="261.68" width="2.44" height="165.33"/>
        <rect class="cls-3" x="320.49" y="261.68" width="2.44" height="165.33"/>
        <rect class="cls-3" x="322.93" y="261.68" width="2.44" height="165.33"/>
        <rect class="cls-3" x="325.37" y="261.68" width="2.44" height="165.33"/>
        <rect class="cls-3" x="327.81" y="261.68" width="2.44" height="165.33"/>
        <rect class="cls-3" x="330.24" y="261.68" width="2.44" height="165.33"/>
        <rect class="cls-3" x="332.68" y="261.68" width="2.44" height="165.33"/>
        <rect class="cls-3" x="335.12" y="261.68" width="2.44" height="165.33"/>
        <rect class="cls-3" x="337.55" y="261.68" width="2.44" height="165.33"/>
        <rect class="cls-3" x="339.99" y="261.68" width="2.44" height="165.33"/>
        <rect class="cls-3" x="342.43" y="261.68" width="2.44" height="165.33"/>
        <rect class="cls-3" x="344.87" y="261.68" width="2.44" height="165.33"/>
        <rect class="cls-3" x="347.3" y="261.68" width="2.44" height="165.33"/>
        <rect class="cls-3" x="349.74" y="261.68" width="2.44" height="165.33"/>
        <rect class="cls-3" x="352.18" y="261.68" width="2.44" height="165.33"/>
        <rect class="cls-3" x="354.61" y="261.68" width="2.44" height="165.33"/>
        <rect class="cls-3" x="357.05" y="261.68" width="2.44" height="165.33"/>
        <rect class="cls-3" x="359.49" y="261.68" width="2.44" height="165.33"/>
        <rect class="cls-3" x="361.93" y="261.68" width="2.44" height="165.33"/>
        <rect class="cls-3" x="364.36" y="261.68" width="2.44" height="165.33"/>
        <rect class="cls-3" x="366.8" y="261.68" width="2.44" height="165.33"/>
        <rect class="cls-3" x="369.24" y="261.68" width="2.44" height="165.33"/>
      </g>
    </g>
  </g>
</svg>